<svg width="16" height="17" viewBox="0 0 16 17" fill="none" xmlns="http://www.w3.org/2000/svg">
<path id="Union" fill-rule="evenodd" clip-rule="evenodd" d="M3.00573 5.44531C2.75885 5.78694 2.61137 6.19025 2.57964 6.61055C2.54784 7.03079 2.633 7.45164 2.82567 7.82646C3.01835 8.20129 3.31102 8.51546 3.67127 8.73418C3.51054 9.30873 3.42836 9.90364 3.42836 10.5C3.42888 10.5667 3.43082 10.6334 3.43418 10.7C2.46519 10.5034 1.59396 9.97786 0.968097 9.21242C0.342232 8.44699 0.000218232 7.48873 0 6.5C0 6.43979 0.00408135 6.38084 0.00811859 6.32253C0.0102261 6.29209 0.0123216 6.26182 0.0138182 6.23164C1.1992 5.90074 2.28218 5.27671 3.16291 4.41709C3.82947 3.79389 4.38331 3.06018 4.8 2.24836C5.57129 2.34137 6.30243 2.64369 6.91418 3.12255C6.69236 3.68691 6.57745 4.28764 6.57454 4.89418C6.49454 4.94291 6.41454 4.99455 6.33745 5.04545C6.01675 4.77194 5.62659 4.59256 5.2102 4.52718C4.7938 4.46179 4.36744 4.51296 3.97834 4.67502C3.58924 4.83707 3.25261 5.10368 3.00573 5.44531ZM11.4179 3.19785C11.2077 3.4286 11.0504 3.70249 10.9571 4.00036V3.99964C9.66242 3.80674 8.33965 4.00689 7.16 4.57418C7.24784 3.46459 7.75079 2.4289 8.5685 1.67374C9.38621 0.918573 10.4586 0.499457 11.5716 0.500001C12.3292 0.499786 13.0742 0.693995 13.7352 1.06404C14.3963 1.43409 14.9513 1.9676 15.3472 2.61351C15.7431 3.25943 15.9667 3.99613 15.9964 4.75314C16.0261 5.51014 15.8611 6.26211 15.5171 6.93709C15.2836 6.57564 15.0145 6.23745 14.7142 5.92836C14.9018 5.67887 15.0326 5.3914 15.0974 5.08607C15.1623 4.78074 15.1597 4.46492 15.0897 4.16071C15.0198 3.8565 14.8842 3.57125 14.6925 3.32491C14.5008 3.07857 14.2576 2.87709 13.9799 2.73458C13.7022 2.59207 13.3967 2.51196 13.0847 2.49986C12.7728 2.48775 12.462 2.54395 12.1741 2.66452C11.8862 2.78508 11.6281 2.96711 11.4179 3.19785ZM3.792 8.12691C3.77434 8.1134 3.75712 8.09933 3.74037 8.08473L3.73964 8.084L3.696 8.04545L3.69091 8.04109C3.44685 7.81539 3.27375 7.52355 3.19271 7.20116C3.11168 6.87877 3.12621 6.53976 3.23454 6.22549C3.34287 5.91121 3.54032 5.63526 3.80279 5.43128C4.06527 5.22729 4.38144 5.1041 4.71273 5.07673L4.72727 5.076C4.7435 5.0748 4.75975 5.07383 4.776 5.07309L4.79637 5.07164L4.84 5.07091H4.86255C4.88195 5.07107 4.90134 5.07155 4.92073 5.07236L4.93673 5.07309C4.95274 5.07384 4.96874 5.07481 4.98473 5.076L5.00727 5.07818C5.02062 5.07924 5.03396 5.08045 5.04727 5.08182L5.07055 5.08473C5.08414 5.08651 5.09772 5.08845 5.11127 5.09055L5.13237 5.09345C5.14865 5.09636 5.1649 5.09951 5.18109 5.10291L5.19346 5.10436C5.21439 5.10882 5.23525 5.11367 5.256 5.11891L5.25891 5.12036C5.27839 5.12486 5.29779 5.12971 5.31709 5.13491L5.33018 5.13855C5.36745 5.14936 5.40432 5.16149 5.44073 5.17491L5.45237 5.17927C5.47141 5.18645 5.49032 5.19396 5.50909 5.20182H5.51127C5.55122 5.2185 5.59052 5.2367 5.62909 5.25636L5.64146 5.26291C5.65611 5.27046 5.67066 5.27822 5.68509 5.28618L5.70109 5.29491C5.71428 5.30251 5.72737 5.31026 5.74037 5.31818L5.75709 5.32836C5.77029 5.33643 5.78338 5.34467 5.79637 5.35309L5.81091 5.36255C5.82835 5.37434 5.84557 5.38646 5.86255 5.39891C5.696 5.53345 5.53746 5.67673 5.38546 5.828C5.36727 5.81345 5.34909 5.80036 5.33091 5.788L5.31637 5.77927C5.30182 5.76982 5.28727 5.76036 5.27273 5.75236L5.256 5.74364C5.22085 5.72461 5.18439 5.70808 5.14691 5.69418L5.13237 5.68909C5.112 5.68182 5.09164 5.676 5.07055 5.67018L5.06909 5.66945C5.04655 5.66364 5.024 5.65927 5.00146 5.65491L4.99127 5.65345L4.936 5.64618L4.91564 5.64473C4.87739 5.64194 4.83901 5.64169 4.80073 5.644L4.78327 5.64545C4.76364 5.64691 4.744 5.64909 4.72509 5.65273H4.72073C4.5561 5.67906 4.40274 5.75289 4.27949 5.86517C4.15623 5.97744 4.06845 6.12326 4.02691 6.28473L4.02546 6.29055L4.02423 6.29586C4.02028 6.31288 4.01646 6.32941 4.01382 6.34655L4.01286 6.351C4.01224 6.35359 4.01164 6.3561 4.01164 6.35891C4.00873 6.37491 4.00655 6.39091 4.00509 6.40764L4.00291 6.42655C4.00188 6.43986 4.00115 6.4532 4.00073 6.46655L4 6.49273L4.00146 6.53345C4.00243 6.55387 4.00413 6.57425 4.00655 6.59454V6.59964C4.02062 6.71271 4.05683 6.82191 4.11311 6.92099C4.16939 7.02007 4.24463 7.10709 4.33455 7.17709C4.14691 7.49564 3.98618 7.82945 3.85455 8.17418L3.84989 8.17083L3.84988 8.17082L3.84986 8.17081C3.83335 8.15894 3.81741 8.14747 3.80146 8.13418L3.792 8.12691ZM13.6313 5.02582C13.8618 5.18145 14.0836 5.35018 14.2945 5.53127C14.4569 5.29552 14.5517 5.01986 14.5687 4.73412C14.5856 4.44837 14.5241 4.16343 14.3908 3.91012C14.2575 3.65682 14.0574 3.44479 13.8123 3.297C13.5671 3.14921 13.2863 3.07128 13 3.07164C12.6769 3.07086 12.3614 3.17014 12.0969 3.35583C11.8324 3.54152 11.6319 3.80452 11.5229 4.10873C12.0138 4.22436 12.4902 4.39745 12.9404 4.62509C12.9448 4.62711 12.9504 4.62801 12.9559 4.62891C12.9604 4.62962 12.9649 4.63034 12.9687 4.63164C13.0031 4.64736 13.0402 4.65599 13.078 4.65699C13.1157 4.65799 13.1533 4.65134 13.1884 4.63745C13.2407 4.61657 13.2858 4.58073 13.318 4.5344C13.3501 4.48808 13.3679 4.43331 13.3691 4.37694C13.3704 4.32057 13.355 4.26508 13.3249 4.21738C13.2949 4.16969 13.2514 4.1319 13.2 4.10873C13.1339 4.08007 13.0595 4.07696 12.9913 4.1C12.92 4.12536 12.8416 4.12138 12.7732 4.08892C12.7049 4.05646 12.6523 3.99818 12.6269 3.92691C12.6015 3.85564 12.6055 3.77721 12.638 3.70888C12.6705 3.64055 12.7287 3.58791 12.8 3.56255C13.0105 3.48856 13.2416 3.49941 13.4443 3.5928C13.6469 3.68619 13.8053 3.85479 13.8858 4.06291C13.966 4.27595 13.9597 4.51187 13.8684 4.72036C13.8136 4.83889 13.7325 4.94336 13.6313 5.02582ZM4.17164 2.22C3.20862 2.24644 2.28251 2.59618 1.54241 3.21293C0.802318 3.82967 0.291303 4.67753 0.0916406 5.62C1.09517 5.28999 2.01041 4.73587 2.768 3.99964C3.32282 3.48048 3.79604 2.8805 4.17164 2.22ZM11.1345 9.30582C11.0636 9.28064 10.9858 9.28376 10.9171 9.31455C10.8828 9.33021 10.852 9.3525 10.8264 9.38013C10.8007 9.40776 10.7808 9.44018 10.7678 9.47553C10.7548 9.51088 10.7488 9.54846 10.7504 9.58611C10.7519 9.62376 10.7609 9.66074 10.7767 9.69491C10.7964 9.73765 10.8264 9.77485 10.8639 9.80323C10.9015 9.8316 10.9455 9.85027 10.992 9.85756C11.0385 9.86486 11.086 9.86056 11.1305 9.84505C11.1749 9.82954 11.2148 9.8033 11.2467 9.76866C11.2785 9.73401 11.3013 9.69204 11.3131 9.64646C11.3248 9.60089 11.3251 9.55312 11.3139 9.5074C11.3028 9.46168 11.2805 9.41942 11.2491 9.38438C11.2176 9.34935 11.1781 9.32261 11.1338 9.30655L11.1345 9.30582ZM6.66658 5.51118C7.65328 4.85189 8.81331 4.5 10 4.5C11.5908 4.50173 13.1159 5.13443 14.2407 6.25927C15.3656 7.38412 15.9983 8.90923 16 10.5C16 11.6867 15.6481 12.8467 14.9888 13.8334C14.3295 14.8201 13.3925 15.5892 12.2961 16.0433C11.1997 16.4974 9.99335 16.6162 8.82946 16.3847C7.66557 16.1532 6.59648 15.5818 5.75736 14.7426C4.91825 13.9035 4.3468 12.8344 4.11529 11.6705C3.88378 10.5067 4.0026 9.30026 4.45672 8.2039C4.91085 7.10754 5.67989 6.17047 6.66658 5.51118ZM9.55495 11.4467C10.0249 11.7608 10.5774 11.9284 11.1425 11.9284C11.8999 11.9272 12.6259 11.6259 13.1615 11.0904C13.6971 10.5549 13.9987 9.829 14 9.07164C14.0001 8.50645 13.8327 7.95392 13.5188 7.48392C13.2049 7.01392 12.7587 6.64756 12.2366 6.43117C11.7144 6.21479 11.1399 6.1581 10.5855 6.26827C10.0312 6.37844 9.52197 6.65053 9.12228 7.05013C8.72258 7.44972 8.45037 7.95887 8.34005 8.51318C8.22974 9.06749 8.28628 9.64207 8.50253 10.1642C8.71879 10.6864 9.08503 11.1327 9.55495 11.4467ZM4.57236 6.51164L4.57454 6.53636L4.57672 6.55091C4.57869 6.56024 4.58111 6.56946 4.58399 6.57854L4.58981 6.59673C4.59888 6.62093 4.61137 6.6437 4.6269 6.66436L4.63166 6.67064L4.63167 6.67065C4.63716 6.67795 4.6425 6.68505 4.64872 6.69127C4.75709 6.54 4.87127 6.39454 4.99127 6.25127C4.93396 6.21794 4.86642 6.20682 4.80145 6.22L4.79709 6.22073C4.74314 6.23196 4.69366 6.25875 4.65476 6.29778C4.61586 6.33681 4.58923 6.38638 4.57818 6.44036L4.57672 6.44618L4.57309 6.47018C4.57209 6.48009 4.5716 6.49004 4.57163 6.5V6.51164H4.57236ZM11.1425 6.78582C10.8423 6.78579 10.5451 6.8449 10.2677 6.95976C9.99039 7.07462 9.73838 7.24299 9.5261 7.45525C9.31382 7.66751 9.14543 7.91951 9.03055 8.19685C8.91566 8.47419 8.85653 8.77144 8.85653 9.07164C8.85653 9.37183 8.91566 9.66908 9.03055 9.94642C9.14543 10.2238 9.31382 10.4758 9.5261 10.688C9.73838 10.9003 9.99039 11.0686 10.2677 11.1835C10.5451 11.2984 10.8423 11.3575 11.1425 11.3575C11.7487 11.3574 12.3301 11.1166 12.7587 10.6879C13.1874 10.2592 13.4282 9.67784 13.4282 9.07164C13.4282 8.46543 13.1874 7.88405 12.7587 7.45538C12.3301 7.02672 11.7487 6.78587 11.1425 6.78582ZM12.2342 8.79454C12.1607 8.99236 12.016 9.15673 11.8284 9.25418C11.9105 9.45054 11.9156 9.66873 11.8429 9.86873C11.7828 10.034 11.6731 10.1768 11.5289 10.2775C11.3847 10.3782 11.213 10.4321 11.0371 10.4316C10.8456 10.4325 10.6594 10.369 10.5084 10.2513C10.3573 10.1337 10.2501 9.96877 10.204 9.78295C10.1579 9.59712 10.1755 9.4012 10.254 9.22658C10.3326 9.05197 10.4675 8.90879 10.6371 8.82C10.5551 8.62427 10.5499 8.40484 10.6225 8.20545C10.7043 7.99663 10.8645 7.82809 11.0689 7.7359C11.2733 7.64372 11.5057 7.6352 11.7163 7.71219C11.9269 7.78917 12.0991 7.94554 12.1958 8.14782C12.2926 8.35011 12.3064 8.58224 12.2342 8.79454ZM11.5258 8.23164C11.5972 8.25828 11.6555 8.31142 11.6887 8.38C11.716 8.43971 11.7219 8.50699 11.7055 8.57055C11.6944 8.61161 11.6747 8.64982 11.6476 8.68258C11.6205 8.71533 11.5866 8.74186 11.5484 8.76036C11.5058 8.77992 11.459 8.7887 11.4122 8.78592C11.3654 8.78314 11.32 8.76889 11.28 8.74443C11.24 8.71997 11.2066 8.68604 11.1828 8.64565C11.1591 8.60525 11.1456 8.55962 11.1436 8.51278C11.1416 8.46594 11.1511 8.41933 11.1714 8.37705C11.1917 8.33478 11.222 8.29813 11.2598 8.27036C11.2975 8.24258 11.3416 8.22452 11.388 8.21776C11.4344 8.21101 11.4817 8.21578 11.5258 8.23164Z" fill="currentColor"/>
</svg>
