<svg width="14" height="16" viewBox="0 0 14 16" fill="none" xmlns="http://www.w3.org/2000/svg">
<path id="Vector" d="M6.9999 0L13.7505 2.89805V7.28849C13.7505 8.29503 13.5797 9.27278 13.2385 10.2213C12.8972 11.1701 12.4316 12.0261 11.8416 12.7896C11.2282 13.5879 10.511 14.2647 9.68978 14.82C8.8682 15.3753 7.97172 15.7685 6.9999 16C6.02815 15.7685 5.13141 15.3753 4.3101 14.82C3.48851 14.2647 2.77134 13.5879 2.15827 12.7896C1.56827 12.0261 1.10239 11.1701 0.761353 10.2213C0.419947 9.27278 0.24939 8.29503 0.24939 7.28849V2.89805L6.9999 0ZM6.9999 7.98263V1.57918L1.74181 3.8525V7.98265H6.9999V14.4729C7.70548 14.2763 8.35353 13.9669 8.94353 13.5444C9.53353 13.1223 10.0541 12.622 10.5053 12.0434C10.9679 11.4767 11.3497 10.8489 11.6507 10.1605C11.9514 9.47236 12.1539 8.74618 12.2581 7.98265H6.9999V7.98263Z" fill="currentColor" fill-opacity="0.8"/>
</svg>
